<?xml version="1.0" encoding="UTF-8"?>
<svg width="24" height="25" version="1.1" viewBox="0 0 6.35 6.6146" xmlns="http://www.w3.org/2000/svg">
 <defs>
  <linearGradient id="a" x1="3.9688" x2="3.9688" y2="6.35" gradientUnits="userSpaceOnUse">
   <stop stop-opacity=".08" offset="0"/>
   <stop stop-opacity=".02" offset="1"/>
  </linearGradient>
 </defs>
 <rect width="6.35" height="6.35" ry=".52917" fill="url(#a)"/>
 <path transform="scale(.26458)" d="m2 0c-1.108-2.9606e-16 -2 0.892-2 2v20c-2.9606e-16 1.108 0.892 2 2 2h20c1.108 0 2-0.892 2-2v-20c0-1.108-0.892-2-2-2h-20zm0 0.99609h19.998c0.571-4e-8 1.0039 0.43291 1.0039 1.0039v19.998c0 0.571-0.4329 1.0039-1.0039 1.0039h-19.998c-0.571 0-1.0039-0.4329-1.0039-1.0039v-19.998c0-0.571 0.43291-1.0039 1.0039-1.0039z" opacity=".35"/>
 <path transform="scale(.26458)" d="m2 1c-0.014704 0-0.028342 0.00359-0.042969 0.00391-0.54819 0.022464-0.96094 0.44046-0.96094 0.99609v1c0-0.571 0.43291-1.0039 1.0039-1.0039h19.998c0.571-1e-7 1.0039 0.43291 1.0039 1.0039v-1c0-0.55631-0.4137-0.97458-0.96289-0.99609-0.013315-2.589e-4 -0.025682-0.0039062-0.039062-0.0039062z" opacity=".1"/>
 <path transform="scale(.26458)" d="m0 22v1c0 1.108 0.892 2 2 2h20c1.108 0 2-0.892 2-2v-1c0 1.102-0.88281 1.9884-1.9824 1.998-7e-3 1.3e-4 -0.01252 0.0039-0.01953 0.0039h-19.998c-0.00768 0-0.013851-0.0038-0.021484-0.0039-1.0978-0.01173-1.9785-0.8974-1.9785-1.998z" fill="#fff" opacity=".1"/>
 <path d="m0.52917 0.52917c-0.00389 0-0.007499 9.4986e-4 -0.011369 0.001035-0.14504 0.0059431-0.25425 0.11654-0.25425 0.26355v0.26458c0-0.15108 0.11454-0.26562 0.26562-0.26562h5.2911c0.15108-3e-8 0.26562 0.11454 0.26562 0.26562v-0.26458c0-0.14719-0.10946-0.25786-0.25476-0.26355-0.00352-6.85e-5 -0.0068-0.001034-0.010335-0.001034z" opacity=".05"/>
 <path d="m0.52917 0.79375c-0.00389 0-0.007499 9.4986e-4 -0.011369 0.001035-0.14504 0.0059431-0.25425 0.11654-0.25425 0.26355v0.26458c0-0.15108 0.11454-0.26562 0.26562-0.26562h5.2911c0.15108 0 0.26562 0.11454 0.26562 0.26562v-0.26458c0-0.14719-0.10946-0.25786-0.25476-0.26355-0.00352-6.85e-5 -0.0068-0.001034-0.010335-0.001034z" opacity=".02"/>
</svg>
